# xmcd
#
# Track frame offsets:
#	150
#	20595
#	45462
#	76540
#	91355
#	110581
#	127451
#
# Disc length: 1960 seconds
#
# Revision: 4
# Processed by: cddbd v1.5.2PL0 Copyright (c) Steve Scherf et al.
# Submitted via: audiograbber 1.83.01
#
DISCID=5307a607
DTITLE=Andreas Bourani - Staub and Fantasie [Deluxe Edition] [CD 2)
DYEAR=2011
DGENRE=Pop
TTITLE0=Andreas Bourani feat. HR Big Band - Nur in meinem Kopf
TTITLE1=Andreas Bourani feat. HR Big Band - Eisberg
TTITLE2=Andreas Bourani feat. HR Big Band - Wunder
TTITLE3=Andreas Bourani - Sicher [Akustik Version]
TTITLE4=Andreas Bourani - Glück [Akustik Version]
TTITLE5=Andreas Bourani - Nur in meinem Kopf [Akustik Version]
TTITLE6=Andreas Bourani - Eisberg [Akustik Version]
EXTD=YEAR: 2011
EXTT0=
EXTT1=
EXTT2=
EXTT3=
EXTT4=
EXTT5=
EXTT6=
PLAYORDER=
